<?xml version="1.0" standalone="no"?>
<!DOCTYPE svg PUBLIC "-//W3C//DTD SVG 20010904//EN"
 "http://www.w3.org/TR/2001/REC-SVG-20010904/DTD/svg10.dtd">
<svg version="1.0" xmlns="http://www.w3.org/2000/svg"
 width="220.000000pt" height="220.000000pt" viewBox="0 0 220.000000 220.000000"
 preserveAspectRatio="xMidYMid meet">

<g transform="translate(0.000000,220.000000) scale(0.100000,-0.100000)"
fill="#000000" stroke="none">
<path d="M2130 2176 c0 -2 7 -7 16 -10 8 -3 12 -2 9 4 -6 10 -25 14 -25 6z"/>
<path d="M55 2142 c-3 -3 -5 -486 -5 -1074 l0 -1068 1041 0 c927 0 1040 2
1037 15 -3 14 -117 15 -1020 15 -997 0 -1017 0 -1028 19 -6 13 -10 193 -10
519 l0 500 38 6 c20 3 62 8 92 12 30 3 93 17 139 30 341 99 616 379 710 725
17 61 41 216 41 267 0 10 93 13 486 11 267 0 488 1 491 4 3 4 -5 8 -18 11 -31
7 -1988 14 -1994 8z m1001 -104 c-19 -234 -117 -456 -275 -621 -171 -179 -424
-301 -646 -310 l-60 -2 -3 508 -2 507 496 0 497 0 -7 -82z"/>
<path d="M2075 2080 c-3 -6 1 -7 9 -4 18 7 21 14 7 14 -6 0 -13 -4 -16 -10z"/>
<path d="M1845 1741 c-3 -5 -2 -12 3 -15 5 -3 9 1 9 9 0 17 -3 19 -12 6z"/>
<path d="M1717 1531 c-4 -17 -3 -21 5 -13 5 5 8 16 6 23 -3 8 -7 3 -11 -10z"/>
<path d="M1665 1471 c-3 -5 -2 -12 3 -15 5 -3 9 1 9 9 0 17 -3 19 -12 6z"/>
<path d="M1620 1400 c0 -5 5 -10 11 -10 5 0 7 5 4 10 -3 6 -8 10 -11 10 -2 0
-4 -4 -4 -10z"/>
<path d="M1031 1366 c-9 -10 -9 -16 -1 -21 6 -4 14 -4 17 -1 4 3 1 6 -7 6 -10
0 -10 3 0 15 7 8 10 15 7 15 -2 0 -10 -6 -16 -14z"/>
<path d="M1445 1140 c-3 -6 1 -7 9 -4 18 7 21 14 7 14 -6 0 -13 -4 -16 -10z"/>
<path d="M1371 1026 c-9 -11 -9 -16 1 -22 7 -4 10 -4 6 1 -4 4 -3 14 3 22 6 7
9 13 6 13 -2 0 -10 -6 -16 -14z"/>
<path d="M825 1010 c-10 -11 -14 -20 -9 -20 5 0 2 -5 -6 -10 -8 -5 -10 -10 -4
-10 6 0 17 7 24 15 7 8 9 15 5 15 -4 0 -2 7 5 15 19 22 6 18 -15 -5z"/>
<path d="M1346 973 c-6 -14 -5 -15 5 -6 7 7 10 15 7 18 -3 3 -9 -2 -12 -12z"/>
<path d="M1303 915 c0 -8 4 -12 9 -9 5 3 6 10 3 15 -9 13 -12 11 -12 -6z"/>
<path d="M751 904 c0 -11 3 -14 6 -6 3 7 2 16 -1 19 -3 4 -6 -2 -5 -13z"/>
<path d="M706 862 c-3 -5 1 -9 9 -9 8 0 12 4 9 9 -3 4 -7 8 -9 8 -2 0 -6 -4
-9 -8z"/>
<path d="M661 783 c-5 -10 -12 -17 -15 -15 -3 1 -6 -1 -7 -5 0 -5 -6 -15 -12
-23 -6 -8 -1 -6 12 5 22 19 46 55 37 55 -3 0 -9 -8 -15 -17z"/>
<path d="M1199 778 c0 -2 -2 -11 -4 -21 -3 -15 -1 -16 11 -6 7 6 11 15 8 20
-5 9 -13 12 -15 7z"/>
<path d="M1173 725 c0 -8 4 -12 9 -9 5 3 6 10 3 15 -9 13 -12 11 -12 -6z"/>
<path d="M1055 671 c-3 -5 -2 -12 3 -15 5 -3 9 1 9 9 0 17 -3 19 -12 6z"/>
<path d="M1070 631 c0 -5 8 -15 18 -22 15 -12 16 -12 5 2 -7 9 -10 19 -6 22 3
4 1 7 -5 7 -7 0 -12 -4 -12 -9z"/>
<path d="M1105 631 c-3 -5 -2 -12 3 -15 5 -3 9 1 9 9 0 17 -3 19 -12 6z"/>
<path d="M515 611 c-3 -5 -2 -12 3 -15 5 -3 9 1 9 9 0 17 -3 19 -12 6z"/>
<path d="M485 571 c-3 -5 0 -13 6 -17 7 -4 9 -3 5 4 -3 5 0 13 6 15 9 4 10 6
1 6 -6 1 -14 -3 -18 -8z"/>
<path d="M1116 563 c-6 -14 -5 -15 5 -6 7 7 10 15 7 18 -3 3 -9 -2 -12 -12z"/>
<path d="M1050 539 c0 -5 5 -7 10 -4 6 3 10 8 10 11 0 2 -4 4 -10 4 -5 0 -10
-5 -10 -11z"/>
<path d="M426 488 c3 -5 10 -6 15 -3 13 9 11 12 -6 12 -8 0 -12 -4 -9 -9z"/>
<path d="M406 472 c-3 -5 1 -9 9 -9 8 0 12 4 9 9 -3 4 -7 8 -9 8 -2 0 -6 -4
-9 -8z"/>
<path d="M320 348 c-15 -21 -17 -28 -6 -19 16 13 41 51 33 51 -2 0 -14 -15
-27 -32z"/>
<path d="M246 257 c-16 -12 -16 -14 -3 -14 9 0 18 6 21 14 7 16 4 16 -18 0z"/>
<path d="M220 215 c-7 -9 -11 -17 -9 -20 3 -2 10 5 17 15 14 24 10 26 -8 5z"/>
<path d="M174 158 l-19 -23 23 19 c21 18 27 26 19 26 -2 0 -12 -10 -23 -22z"/>
<path d="M132 118 c-15 -15 -15 -28 0 -28 6 0 8 3 5 7 -4 3 -2 12 4 20 14 16
7 17 -9 1z"/>
<path d="M105 69 c-4 -6 -5 -12 -2 -15 2 -3 7 2 10 11 7 17 1 20 -8 4z"/>
</g>
</svg>
